<?xml version="1.0" encoding="UTF-8"?>
<!DOCTYPE svg PUBLIC "-//W3C//DTD SVG 1.1//EN" "http://www.w3.org/Graphics/SVG/1.1/DTD/svg11.dtd">
<!-- Creator: CorelDRAW 2021 (64-Bit) -->
<svg xmlns="http://www.w3.org/2000/svg" xml:space="preserve" width="154.624mm" height="86.8311mm" version="1.1" style="shape-rendering:geometricPrecision; text-rendering:geometricPrecision; image-rendering:optimizeQuality; fill-rule:evenodd; clip-rule:evenodd"
viewBox="0 0 14093.13 7914.19"
 xmlns:xlink="http://www.w3.org/1999/xlink"
 xmlns:xodm="http://www.corel.com/coreldraw/odm/2003">
 <defs>
  <style type="text/css">
   <![CDATA[
    .fil0 {fill:#CBA85C;fill-rule:nonzero}
    .fil1 {fill:#CBA85C;fill-rule:nonzero}
    .fil2 {fill:white;fill-rule:nonzero}
   ]]>
  </style>
 </defs>
 <g id="Layer_x0020_1">
  <metadata id="CorelCorpID_0Corel-Layer"/>
  <path class="fil0" d="M1834.42 2259.06c357.72,309.43 759.38,566.87 1180.1,781.03 -59.76,-88.35 -141.4,-158.06 -207.22,-241.43 -267.86,-331.73 -466.41,-721.48 -572.3,-1134.83 -78.39,-303.79 -59.97,-620.15 -42.87,-930 -106.54,87.05 -203.98,187.3 -268.72,310.07 -194.02,335.19 -213.06,739.02 -163.7,1114.7 0.43,46.99 45.04,71.46 74.7,100.47z"/>
  <path class="fil1" d="M2917.95 4421.11c-203.54,-103.72 -420.5,-178.21 -623.39,-283.22 -34.43,-16.67 -67.98,-35.95 -104.58,-46.56 -694.63,-364.41 -1368.91,-811.34 -1851.99,-1440.14 -87.92,-105.02 -149.84,-228.23 -233.63,-336.06 -8.46,224.54 19.04,449.52 73.39,667.13 105.24,401.87 330.43,768.25 623.62,1060.78 435,424.19 993,703.3 1569.19,881.71 371.79,108.92 754.39,195.31 1142.63,210.25 -9.09,-125.59 -24.24,-258.1 -100.46,-363.12 -119.96,-169.76 -314.19,-260.92 -494.78,-350.78z"/>
  <path class="fil0" d="M763.9 4365.25c63.66,309.42 221.08,593.94 423.54,834.07 226.05,274.99 545.44,459.05 879.55,571.2 404.91,127.76 834.72,148.11 1256.31,141.83 39.63,-171.71 82.49,-342.77 133.6,-511.22 -783.2,-79.69 -1565.09,-292.32 -2238.28,-709.8 -160.22,-96.36 -302.71,-218.05 -454.71,-326.09z"/>
  <path class="fil1" d="M4375.42 7644.39c-158.07,-208.08 -284.31,-441.08 -369.19,-688.57 -125.16,-369.18 -102.86,-774.53 6.28,-1144.79 43.52,-101.55 74.49,-208.3 119.09,-309.64 152.01,-324.37 283.22,-685.54 213.28,-1048.45 -49.15,-198.12 -154.81,-384.77 -312.66,-516.21 -170.41,-143.56 -377.63,-230.4 -570.34,-338.65 -382.19,-194.89 -749.85,-416.82 -1114.27,-642.89 -344.94,-214.8 -659.11,-475.06 -949.27,-758.93 -428.31,-401.46 -779.3,-896.01 -968.98,-1454.66 -84.84,-240.65 -157.33,-487.34 -185.74,-741.62l-0.32 0c-124.53,193.27 -189.22,420.25 -224.26,645.7 -66.92,511.66 45.9,1041.51 286.47,1495.58 134.03,238.83 298.17,462.07 491.95,656.08 506.03,527.03 1148.27,897.74 1805,1204.57 266.99,129.7 552.59,223.24 798.78,393.22 62.36,59.54 133.82,109.99 189.47,177.12 160.66,176.47 223.89,428.74 181.45,661.93 -22.74,142.7 -73.63,278.46 -105.45,418.78 -80.98,290.58 -145.72,596.1 -97.44,898.17 57.6,391.7 275,744.43 553.24,1019.21 145.29,126.02 289.72,258.97 464.25,343.85 -63.87,-95.05 -144.65,-176.9 -211.33,-269.8z"/>
  <path class="fil0" d="M3297.31 6170.68c-514.69,3.9 -1041.95,-27.94 -1524.38,-223.45 97.88,251.38 284.52,466.41 522.06,595.24 312.88,186.44 682.5,240.78 1041.51,240.78 -47.85,-200.5 -54.79,-407.73 -39.19,-612.56z"/>
  <path class="fil2" d="M5760.28 5163.6c-165.58,0 -321.06,-38.36 -430.07,-109.05 -50.48,-32.3 -70.67,-70.66 -70.67,-119.14 0,-48.43 28.28,-82.76 76.73,-82.76 70.66,0 195.83,119.12 424.01,119.12 147.39,0 264.48,-64.59 264.48,-191.8 0,-268.54 -736.95,-252.39 -736.95,-702.64 0,-280.64 236.21,-375.55 482.56,-375.55 143.34,0 266.5,22.22 353.33,62.58 56.54,26.27 76.72,56.54 76.72,107.03 0,54.5 -32.31,82.78 -82.78,82.78 -32.3,0 -177.69,-60.58 -347.27,-60.58 -177.69,0 -280.66,66.63 -280.66,179.7 0,276.62 736.98,254.4 736.98,706.69 0,270.55 -218.06,383.63 -466.41,383.63z"/>
  <path class="fil2" d="M6642.65 4152.04c40.36,-8.08 84.79,-12.13 135.27,-12.13l44.41 0c44.43,0 62.6,34.34 62.6,72.71 0,54.5 -42.4,119.12 -98.94,119.12l-143.33 0 0 545.14c0,66.63 26.24,94.91 90.85,94.91l42.4 0c48.46,0 64.6,32.31 64.6,70.67 0,54.5 -42.39,121.15 -137.29,121.15 -151.45,0 -262.48,-86.83 -262.48,-276.61l0 -555.25 -74.71 0c-40.38,0 -58.54,-34.32 -58.54,-72.69 0,-54.5 34.32,-119.14 88.84,-119.14l44.41 0 0 -169.58c0,-56.54 66.62,-92.88 123.15,-92.88 42.4,0 78.76,20.19 78.76,68.64l0 205.95z"/>
  <path class="fil2" d="M7179.72 5044.49c0,62.57 -54.52,119.11 -119.14,119.11 -64.61,0 -121.13,-56.54 -121.13,-119.11 0,-66.65 56.52,-121.15 121.13,-121.15 64.61,0 119.14,54.5 119.14,121.15z"/>
  <path class="fil2" d="M8098.4 4384.22c60.57,-12.1 121.15,-16.16 210,-16.16l70.65 0c177.69,0 266.53,-90.85 266.53,-230.17 0,-137.28 -88.85,-230.17 -276.6,-230.17l-270.58 0 0 476.49zm0 690.53c0,50.48 -62.58,88.85 -127.21,88.85 -40.36,0 -74.7,-18.17 -74.7,-62.6l0 -1225.58c0,-86.81 42.39,-159.49 165.58,-159.49l306.91 0c355.35,0 476.47,207.95 476.47,415.91 0,145.38 -76.71,298.84 -274.57,369.51 44.43,30.27 64.61,66.63 88.84,133.25l111.04 300.82c10.11,26.27 24.23,36.36 54.52,36.36l22.21 0c42.39,0 60.57,26.26 60.57,64.61 0,70.67 -46.43,127.21 -131.22,127.21 -117.12,0 -165.58,-62.6 -203.93,-169.61l-109.05 -298.81c-38.37,-100.94 -90.85,-135.29 -193.84,-135.29l-171.63 0 0 514.86z"/>
  <path class="fil2" d="M9538.02 4882.95l0 -165.58 -220.08 0c-115.08,0 -163.54,66.63 -163.54,133.25 0,60.58 28.27,121.15 113.07,121.15 98.93,0 179.69,-36.36 270.54,-88.82zm0 169.6c-82.77,72.68 -189.78,111.04 -290.75,111.04 -155.47,0 -294.79,-94.88 -294.79,-310.94 0,-238.27 151.45,-327.09 361.42,-327.09 68.66,0 145.38,8.08 224.12,22.19l0 -82.78c0,-92.87 -88.84,-147.39 -191.81,-147.39 -155.45,0 -218.05,70.67 -272.55,70.67 -44.43,0 -86.83,-50.48 -86.83,-102.98 0,-30.28 12.1,-62.61 42.4,-78.76 80.75,-44.39 195.85,-80.75 321.03,-80.75 240.28,0 389.69,121.15 389.69,329.1l0 619.86c0,52.51 -62.6,88.85 -117.1,88.85 -36.35,0 -70.67,-16.17 -76.73,-58.57l-8.08 -52.47z"/>
  <path class="fil2" d="M10123.57 4844.58c72.67,86.83 157.48,127.19 228.16,127.19 139.31,0 205.93,-135.27 205.93,-319 0,-181.73 -70.66,-335.18 -203.92,-335.18 -68.64,0 -147.4,34.33 -230.18,102.98l0 424.01zm0 629.96c0,54.5 -62.6,92.87 -129.22,92.87 -44.43,0 -72.69,-18.17 -72.69,-62.6l0 -1286.14c0,-56.52 66.63,-92.88 123.16,-92.88 42.39,0 78.75,20.18 78.75,68.64l0 44.41c76.72,-70.66 163.55,-113.06 254.4,-113.06 252.39,0 381.61,248.36 381.61,526.99 0,276.6 -123.19,510.82 -371.52,510.82 -84.79,0 -177.67,-40.38 -264.49,-135.29l0 446.23z"/>
  <path class="fil2" d="M11106.87 4289.33c94.91,-98.96 197.88,-163.54 321.03,-163.54 147.42,0 274.61,90.86 274.61,284.67l0 660.25c0,54.52 -62.61,92.89 -129.23,92.89 -44.41,0 -72.66,-18.17 -72.66,-62.6l0 -670.33c0,-78.75 -36.36,-113.07 -111.06,-113.07 -100.94,0 -205.95,78.75 -282.68,169.6l0 583.52c0,54.52 -62.6,92.89 -129.22,92.89 -44.43,0 -72.66,-18.17 -72.66,-62.6l0 -1352.78c0,-56.56 66.63,-92.89 123.14,-92.89 42.4,0 78.75,20.2 78.75,68.66l0 565.33z"/>
  <path class="fil2" d="M12425.35 4882.95l0 -165.58 -220.08 0c-115.12,0 -163.55,66.63 -163.55,133.25 0,60.58 28.25,121.15 113.06,121.15 98.96,0 179.69,-36.36 270.57,-88.82zm0 169.6c-82.8,72.68 -189.82,111.04 -290.76,111.04 -155.47,0 -294.78,-94.88 -294.78,-310.94 0,-238.27 151.44,-327.09 361.41,-327.09 68.67,0 145.38,8.08 224.13,22.19l0 -82.78c0,-92.87 -88.85,-147.39 -191.82,-147.39 -155.47,0 -218.07,70.67 -272.6,70.67 -44.39,0 -86.81,-50.48 -86.81,-102.98 0,-30.28 12.1,-62.61 42.42,-78.76 80.75,-44.39 195.83,-80.75 321.03,-80.75 240.26,0 389.67,121.15 389.67,329.1l0 619.86c0,52.51 -62.6,88.85 -117.1,88.85 -36.33,0 -70.67,-16.17 -76.72,-58.57l-8.08 -52.47z"/>
  <path class="fil2" d="M12980.58 4567.97c68.67,-16.15 143.37,-26.25 244.31,-26.25l181.73 0 0 -20.2c0,-139.3 -86.83,-203.93 -181.73,-203.93 -149.4,0 -222.07,117.09 -244.31,250.37zm-2.01 165.56c22.22,131.27 102.98,238.25 238.25,238.25 143.37,0 201.93,-90.85 282.68,-90.85 52.51,0 70.68,34.34 70.68,80.76 0,36.35 -12.12,56.53 -28.28,78.75 -52.49,72.67 -195.85,123.16 -325.08,123.16 -302.86,0 -444.19,-242.3 -444.19,-504.78 0,-351.32 193.84,-533.03 452.27,-533.03 175.67,0 383.63,131.24 383.63,395.73l0 18.17c0,137.3 -80.75,193.84 -207.96,193.84l-422 0z"/>
  <path class="fil2" d="M13949.77 4927.36c0,32.31 16.15,44.41 46.42,44.41l26.27 0c46.44,0 70.67,32.31 70.67,72.72 0,72.66 -50.47,119.11 -135.29,119.11 -149.4,0 -209.97,-88.85 -209.97,-230.17l0 -1185.21c0,-56.56 66.63,-92.89 123.14,-92.89 42.4,0 78.76,20.2 78.76,68.66l0 1203.36z"/>
  <path class="fil2" d="M6263.03 7099.99c0,52.48 -64.62,90.87 -127.22,90.87 -40.36,0 -74.7,-18.18 -74.7,-64.63l0 -561.31 -599.66 0 0 535.07c0,52.48 -64.61,90.87 -127.21,90.87 -40.37,0 -74.7,-18.18 -74.7,-64.63l0 -1306.36c0,-52.48 62.6,-90.85 127.21,-90.85 44.41,0 74.7,20.18 74.7,66.63l0 603.71c70.66,-16.13 161.54,-26.25 252.39,-26.25l347.27 0 0 -553.24c0,-52.48 62.6,-90.85 127.21,-90.85 44.41,0 74.71,20.18 74.71,66.63l0 1304.34z"/>
  <path class="fil2" d="M6626.45 6595.23c68.66,-16.15 143.36,-26.27 244.31,-26.27l181.72 0 0 -20.2c0,-139.29 -86.82,-203.93 -181.72,-203.93 -149.41,0 -222.1,117.09 -244.31,250.39zm-2.01 165.54c22.21,131.27 102.98,238.27 238.27,238.27 143.34,0 201.89,-90.86 282.66,-90.86 52.51,0 70.67,34.33 70.67,80.75 0,36.35 -12.12,56.56 -28.28,78.75 -52.48,72.67 -195.84,123.18 -325.05,123.18 -302.88,0 -444.21,-242.32 -444.21,-504.8 0,-351.32 193.84,-533.04 452.27,-533.04 175.67,0 383.62,131.25 383.62,395.74l0 18.18c0,137.3 -80.76,193.82 -207.95,193.82l-422 0z"/>
  <path class="fil2" d="M7934.83 6910.2l0 -165.58 -220.06 0c-115.11,0 -163.57,66.63 -163.57,133.24 0,60.58 28.28,121.18 113.07,121.18 98.94,0 179.7,-36.36 270.55,-88.84zm0 169.6c-82.75,72.67 -189.78,111.06 -290.73,111.06 -155.49,0 -294.79,-94.9 -294.79,-310.96 0,-238.25 151.43,-327.09 361.42,-327.09 68.64,0 145.36,8.08 224.11,22.21l0 -82.78c0,-92.89 -88.84,-147.41 -191.82,-147.41 -155.45,0 -218.05,70.67 -272.55,70.67 -44.42,0 -86.82,-50.48 -86.82,-102.96 0,-30.3 12.1,-62.61 42.4,-78.76 80.76,-44.41 195.85,-80.77 321.02,-80.77 240.29,0 389.69,121.16 389.69,329.11l0 619.86c0,52.52 -62.6,88.87 -117.09,88.87 -36.36,0 -70.68,-16.17 -76.73,-58.57l-8.08 -52.49z"/>
  <path class="fil2" d="M8520.4 6954.62c0,32.32 16.13,44.42 46.42,44.42l26.25 0c46.45,0 70.67,32.28 70.67,72.69 0,72.67 -50.48,119.14 -135.27,119.14 -149.43,0 -209.99,-88.87 -209.99,-230.19l0 -1185.21c0,-56.54 66.63,-92.89 123.16,-92.89 42.39,0 78.75,20.2 78.75,68.66l0 1203.37z"/>
  <path class="fil2" d="M9004.98 6179.3c40.35,-8.08 84.78,-12.13 135.26,-12.13l44.41 0c44.41,0 62.6,34.33 62.6,72.69 0,54.5 -42.4,119.14 -98.94,119.14l-143.33 0 0 545.14c0,66.63 26.23,94.9 90.83,94.9l42.42 0c48.43,0 64.59,32.28 64.59,70.66 0,54.52 -42.39,121.17 -137.28,121.17 -151.44,0 -262.5,-86.82 -262.5,-276.63l0 -555.23 -74.7 0c-40.39,0 -58.55,-34.32 -58.55,-72.71 0,-54.5 34.32,-119.12 88.84,-119.12l44.41 0 0 -169.6c0,-56.55 66.64,-92.88 123.18,-92.88 42.39,0 78.76,20.19 78.76,68.64l0 205.97z"/>
  <path class="fil2" d="M9566.28 6316.6c94.88,-98.96 197.87,-163.58 321.06,-163.58 147.36,0 274.57,90.86 274.57,284.7l0 660.22c0,54.52 -62.6,92.91 -129.22,92.91 -44.41,0 -72.7,-18.18 -72.7,-62.6l0 -670.33c0,-78.75 -36.35,-113.09 -111.06,-113.09 -100.94,0 -205.94,78.75 -282.66,169.6l0 583.51c0,54.52 -62.6,92.91 -129.22,92.91 -44.41,0 -72.69,-18.18 -72.69,-62.6l0 -1352.8c0,-56.54 66.63,-92.89 123.18,-92.89 42.4,0 78.73,20.2 78.73,68.66l0 565.36z"/>
 </g>
</svg>
