<?xml version="1.0" encoding="UTF-8"?>
<!DOCTYPE svg PUBLIC "-//W3C//DTD SVG 1.1//EN" "http://www.w3.org/Graphics/SVG/1.1/DTD/svg11.dtd">
<!-- Creator: CorelDRAW 2021 (64-Bit) -->
<svg xmlns="http://www.w3.org/2000/svg" xml:space="preserve" width="13.002mm" height="22.4342mm" version="1.1" style="shape-rendering:geometricPrecision; text-rendering:geometricPrecision; image-rendering:optimizeQuality; fill-rule:evenodd; clip-rule:evenodd"
viewBox="0 0 104.09 179.6"
 xmlns:xlink="http://www.w3.org/1999/xlink"
 xmlns:xodm="http://www.corel.com/coreldraw/odm/2003">
 <defs>
  <style type="text/css">
   <![CDATA[
    .fil0 {fill:#CBA85C;fill-rule:nonzero}
    .fil1 {fill:#CBA85C;fill-rule:nonzero}
   ]]>
  </style>
 </defs>
 <g id="Layer_x0020_1">
  <metadata id="CorelCorpID_0Corel-Layer"/>
  <g id="_1929714411312">
   <path class="fil0" d="M41.63 51.26c8.12,7.02 17.23,12.86 26.78,17.72 -1.36,-2.01 -3.21,-3.59 -4.7,-5.48 -6.08,-7.53 -10.58,-16.37 -12.99,-25.75 -1.78,-6.89 -1.36,-14.07 -0.97,-21.1 -2.42,1.98 -4.63,4.25 -6.1,7.04 -4.4,7.61 -4.84,16.77 -3.71,25.3 0.01,1.07 1.02,1.62 1.69,2.28z"/>
   <path class="fil1" d="M66.22 100.33c-4.62,-2.35 -9.54,-4.04 -14.15,-6.43 -0.78,-0.38 -1.54,-0.82 -2.37,-1.06 -15.76,-8.27 -31.06,-18.41 -42.03,-32.68 -1.99,-2.38 -3.4,-5.18 -5.3,-7.63 -0.19,5.1 0.43,10.2 1.67,15.14 2.39,9.12 7.5,17.43 14.15,24.07 9.87,9.63 22.53,15.96 35.61,20.01 8.44,2.47 17.12,4.43 25.93,4.77 -0.21,-2.85 -0.55,-5.86 -2.28,-8.24 -2.72,-3.85 -7.13,-5.92 -11.23,-7.96z"/>
   <path class="fil0" d="M17.34 99.06c1.44,7.02 5.02,13.48 9.61,18.93 5.13,6.24 12.38,10.42 19.96,12.96 9.19,2.9 18.94,3.36 28.51,3.22 0.9,-3.9 1.87,-7.78 3.03,-11.6 -17.77,-1.81 -35.52,-6.63 -50.79,-16.11 -3.64,-2.19 -6.87,-4.95 -10.32,-7.4z"/>
   <path class="fil1" d="M99.29 173.47c-3.59,-4.72 -6.45,-10.01 -8.38,-15.63 -2.84,-8.38 -2.33,-17.58 0.14,-25.98 0.99,-2.3 1.69,-4.73 2.7,-7.03 3.45,-7.36 6.43,-15.56 4.84,-23.79 -1.12,-4.5 -3.51,-8.73 -7.1,-11.71 -3.87,-3.26 -8.57,-5.23 -12.94,-7.69 -8.67,-4.42 -17.02,-9.46 -25.29,-14.59 -7.83,-4.87 -14.96,-10.78 -21.54,-17.22 -9.72,-9.11 -17.68,-20.33 -21.99,-33.01 -1.93,-5.46 -3.57,-11.06 -4.21,-16.83l-0.01 0c-2.83,4.39 -4.29,9.54 -5.09,14.65 -1.52,11.61 1.04,23.64 6.5,33.94 3.04,5.42 6.77,10.49 11.16,14.89 11.48,11.96 26.06,20.37 40.96,27.34 6.06,2.94 12.54,5.07 18.13,8.92 1.41,1.35 3.04,2.5 4.3,4.02 3.65,4 5.08,9.73 4.12,15.02 -0.52,3.24 -1.67,6.32 -2.39,9.5 -1.84,6.59 -3.31,13.53 -2.21,20.38 1.31,8.89 6.24,16.89 12.55,23.13 3.3,2.86 6.57,5.88 10.54,7.8 -1.45,-2.16 -3.28,-4.01 -4.8,-6.12z"/>
   <path class="fil0" d="M74.83 140.03c-11.68,0.09 -23.64,-0.63 -34.59,-5.07 2.22,5.7 6.46,10.58 11.85,13.51 7.1,4.23 15.49,5.46 23.63,5.46 -1.09,-4.55 -1.24,-9.25 -0.89,-13.9z"/>
  </g>
 </g>
</svg>
